<?xml version="1.0" encoding="UTF-8"?>
<svg width="206px" height="92px" viewBox="0 0 206 92" version="1.1" xmlns="http://www.w3.org/2000/svg" xmlns:xlink="http://www.w3.org/1999/xlink">
    <title>Artboard</title>
    <g id="Artboard" stroke="none" stroke-width="1" fill="none" fill-rule="evenodd">
        <g id="Group" transform="translate(0.5, 0.5)">
            <path d="M24.0899968,38.493748 L39.0899968,47.868748 C39.9671409,48.4169631 40.5,49.3783728 40.5,50.4127429 L40.5,69.5872571 C40.5,70.6216272 39.9671409,71.5830369 39.0899968,72.131252 L24.0899968,81.506252 C23.117186,82.1142588 21.882814,82.1142588 20.9100032,81.506252 L5.91000318,72.131252 C5.03285909,71.5830369 4.5,70.6216272 4.5,69.5872571 L4.5,50.4127429 C4.5,49.3783728 5.03285909,48.4169631 5.91000318,47.868748 L20.9100032,38.493748 C21.882814,37.8857412 23.117186,37.8857412 24.0899968,38.493748 Z" id="Polygon" fill-opacity="0.8" fill="#D1CAAD" transform="translate(22.5, 60) rotate(90) translate(-22.5, -60)"></path>
            <path d="M24.0899968,11.493748 L39.0899968,20.868748 C39.9671409,21.4169631 40.5,22.3783728 40.5,23.4127429 L40.5,42.5872571 C40.5,43.6216272 39.9671409,44.5830369 39.0899968,45.131252 L24.0899968,54.506252 C23.117186,55.1142588 21.882814,55.1142588 20.9100032,54.506252 L5.91000318,45.131252 C5.03285909,44.5830369 4.5,43.6216272 4.5,42.5872571 L4.5,23.4127429 C4.5,22.3783728 5.03285909,21.4169631 5.91000318,20.868748 L20.9100032,11.493748 C21.882814,10.8857412 23.117186,10.8857412 24.0899968,11.493748 Z" id="Polygon" fill-opacity="0.8" fill="#2AAA9E" transform="translate(22.5, 33) rotate(90) translate(-22.5, -33)"></path>
            <path d="M50.0899968,51.493748 L65.0899968,60.868748 C65.9671409,61.4169631 66.5,62.3783728 66.5,63.4127429 L66.5,82.5872571 C66.5,83.6216272 65.9671409,84.5830369 65.0899968,85.131252 L50.0899968,94.506252 C49.117186,95.1142588 47.882814,95.1142588 46.9100032,94.506252 L31.9100032,85.131252 C31.0328591,84.5830369 30.5,83.6216272 30.5,82.5872571 L30.5,63.4127429 C30.5,62.3783728 31.0328591,61.4169631 31.9100032,60.868748 L46.9100032,51.493748 C47.882814,50.8857412 49.117186,50.8857412 50.0899968,51.493748 Z" id="Polygon" fill-opacity="0.8" fill="#3EA4DC" transform="translate(48.5, 73) rotate(90) translate(-48.5, -73)"></path>
            <path d="M50.0899968,-3.50625199 L65.0899968,5.86874801 C65.9671409,6.41696307 66.5,7.37837283 66.5,8.41274292 L66.5,27.5872571 C66.5,28.6216272 65.9671409,29.5830369 65.0899968,30.131252 L50.0899968,39.506252 C49.117186,40.1142588 47.882814,40.1142588 46.9100032,39.506252 L31.9100032,30.131252 C31.0328591,29.5830369 30.5,28.6216272 30.5,27.5872571 L30.5,8.41274292 C30.5,7.37837283 31.0328591,6.41696307 31.9100032,5.86874801 L46.9100032,-3.50625199 C47.882814,-4.11425877 49.117186,-4.11425877 50.0899968,-3.50625199 Z" id="Polygon" fill-opacity="0.8" fill="#B13581" transform="translate(48.5, 18) rotate(90) translate(-48.5, -18)"></path>
            <g id="Greater-Manchester" transform="translate(78.3125, 18.9404)" fill="#7D7C7A" fill-rule="nonzero">
                <path d="M4.15136719,9.77539062 C4.73535156,9.77539062 5.2664388,9.68652344 5.74462891,9.50878906 C6.22281901,9.33105469 6.63330078,9.07609049 6.97607422,8.74389648 C7.31884766,8.41170247 7.58227539,8.01497396 7.76635742,7.55371094 C7.95043945,7.09244792 8.04248047,6.58040365 8.04248047,6.01757812 L8.04248047,4.90039062 L4.32910156,4.90039062 L4.32910156,5.90332031 L6.89990234,5.90332031 L6.89990234,6.12548828 C6.89990234,6.64176432 6.78564453,7.0945638 6.55712891,7.48388672 C6.32861328,7.87320964 6.00805664,8.17683919 5.59545898,8.39477539 C5.18286133,8.61271159 4.70361328,8.72167969 4.15771484,8.72167969 C3.69645182,8.72167969 3.28173828,8.63492839 2.91357422,8.46142578 C2.54541016,8.28792318 2.23120117,8.03930664 1.97094727,7.71557617 C1.71069336,7.3918457 1.51180013,6.99934896 1.37426758,6.53808594 C1.23673503,6.07682292 1.16796875,5.55843099 1.16796875,4.98291016 L1.16796875,4.97021484 C1.16796875,4.21272786 1.2906901,3.5546875 1.53613281,2.99609375 C1.78157552,2.4375 2.12752279,2.00480143 2.57397461,1.69799805 C3.02042643,1.39119466 3.54622396,1.23779297 4.15136719,1.23779297 C4.83268229,1.23779297 5.39973958,1.39436849 5.85253906,1.70751953 C6.30533854,2.02067057 6.62483724,2.47347005 6.81103516,3.06591797 L6.83007812,3.12939453 L7.98535156,3.12939453 L7.97265625,3.06591797 C7.85416667,2.48616536 7.62247721,1.98046875 7.27758789,1.54882812 C6.93269857,1.1171875 6.49471029,0.781819661 5.96362305,0.542724609 C5.43253581,0.303629557 4.82845052,0.184082031 4.15136719,0.184082031 C3.31770833,0.184082031 2.58878581,0.381917318 1.96459961,0.777587891 C1.34041341,1.17325846 0.856933594,1.72973633 0.514160156,2.44702148 C0.171386719,3.16430664 0,4.00537109 0,4.97021484 L0,4.98291016 C0,5.71500651 0.0973307292,6.37516276 0.291992188,6.96337891 C0.486653646,7.55159505 0.764892578,8.05517578 1.12670898,8.47412109 C1.48852539,8.89306641 1.92439779,9.21468099 2.43432617,9.43896484 C2.94425456,9.6632487 3.51660156,9.77539062 4.15136719,9.77539062 Z" id="Path"></path>
                <path d="M9.84521484,9.55957031 L10.949707,9.55957031 L10.949707,5.31933594 C10.949707,4.98502604 11.0269368,4.69303385 11.1813965,4.44335938 C11.3358561,4.1936849 11.5485026,3.99902344 11.8193359,3.859375 C12.0901693,3.71972656 12.4012044,3.64990234 12.7524414,3.64990234 C12.8751628,3.64990234 12.9904785,3.65519206 13.0983887,3.66577148 C13.2062988,3.67635091 13.3173828,3.69222005 13.4316406,3.71337891 L13.4316406,2.640625 C13.3766276,2.63216146 13.2972819,2.62263997 13.1936035,2.61206055 C13.0899251,2.60148112 12.9851888,2.59619141 12.8793945,2.59619141 C12.4181315,2.59619141 12.0309245,2.69563802 11.7177734,2.89453125 C11.4046224,3.09342448 11.1824544,3.37272135 11.0512695,3.73242188 L10.949707,3.73242188 L10.949707,2.71679688 L9.84521484,2.71679688 L9.84521484,9.55957031 Z" id="Path"></path>
                <path d="M17.3227539,9.68017578 C17.7247721,9.68017578 18.0876465,9.62833659 18.411377,9.5246582 C18.7351074,9.42097982 19.0154622,9.28133138 19.2524414,9.10571289 C19.4894206,8.9300944 19.6830241,8.73331706 19.833252,8.51538086 C19.9834798,8.29744466 20.0882161,8.07210286 20.1474609,7.83935547 L20.1601562,7.78857422 L19.0556641,7.78857422 L19.0302734,7.84570312 C18.9710286,7.98111979 18.8673503,8.11442057 18.7192383,8.24560547 C18.5711263,8.37679036 18.3828125,8.48470052 18.1542969,8.56933594 C17.9257812,8.65397135 17.6570638,8.69628906 17.3481445,8.69628906 C16.933431,8.69628906 16.5737305,8.60424805 16.269043,8.42016602 C15.9643555,8.23608398 15.7294922,7.97159831 15.5644531,7.62670898 C15.3994141,7.28181966 15.3168945,6.86604818 15.3168945,6.37939453 L15.3168945,5.94140625 C15.3168945,5.42936198 15.4015299,4.99772135 15.5708008,4.64648438 C15.7400716,4.2952474 15.9696452,4.02970378 16.2595215,3.84985352 C16.5493978,3.67000326 16.878418,3.58007812 17.246582,3.58007812 C17.6147461,3.58007812 17.9405924,3.66577148 18.2241211,3.8371582 C18.5076497,4.00854492 18.7298177,4.26774089 18.890625,4.61474609 C19.0514323,4.9617513 19.1318359,5.40397135 19.1318359,5.94140625 L19.1318359,6.37939453 L19.6777344,5.57324219 L14.7583008,5.57324219 L14.7583008,6.45556641 L20.2426758,6.45556641 L20.2426758,6.02392578 C20.2426758,5.34261068 20.1231283,4.74487305 19.8840332,4.23071289 C19.6449382,3.71655273 19.3021647,3.31559245 18.8557129,3.02783203 C18.4092611,2.74007161 17.875,2.59619141 17.2529297,2.59619141 C16.6350911,2.59619141 16.0955404,2.74641927 15.6342773,3.046875 C15.1730143,3.34733073 14.8164876,3.76416016 14.5646973,4.29736328 C14.3129069,4.83056641 14.1870117,5.45052083 14.1870117,6.15722656 L14.1870117,6.16357422 C14.1870117,6.87874349 14.3129069,7.49975586 14.5646973,8.02661133 C14.8164876,8.5534668 15.1761882,8.96077474 15.6437988,9.24853516 C16.1114095,9.53629557 16.6710612,9.68017578 17.3227539,9.68017578 Z" id="Path"></path>
                <path d="M23.7592773,9.68017578 C24.0681966,9.68017578 24.3517253,9.63680013 24.6098633,9.55004883 C24.8680013,9.46329753 25.0996908,9.33528646 25.3049316,9.16601562 C25.5101725,8.99674479 25.6847331,8.79150391 25.8286133,8.55029297 L25.9301758,8.55029297 L25.9301758,9.55957031 L27.034668,9.55957031 L27.034668,4.875 C27.034668,4.40104167 26.9341634,3.99373372 26.7331543,3.65307617 C26.5321452,3.31241862 26.2380371,3.05110677 25.8508301,2.86914062 C25.463623,2.68717448 24.9907227,2.59619141 24.4321289,2.59619141 C23.9454753,2.59619141 23.5117188,2.67130534 23.1308594,2.8215332 C22.75,2.97176107 22.4400228,3.18123372 22.2009277,3.44995117 C21.9618327,3.71866862 21.8126628,4.0328776 21.753418,4.39257812 L21.7470703,4.43066406 L22.8515625,4.43066406 L22.8579102,4.41162109 C22.9467773,4.14501953 23.1223958,3.9387207 23.3847656,3.79272461 C23.6471354,3.64672852 23.9835612,3.57373047 24.394043,3.57373047 C24.9060872,3.57373047 25.2901204,3.68481445 25.5461426,3.90698242 C25.8021647,4.12915039 25.9301758,4.45182292 25.9301758,4.875 L25.9301758,7.0078125 C25.9301758,7.33365885 25.8465983,7.62565104 25.6794434,7.88378906 C25.5122884,8.14192708 25.2827148,8.34611003 24.9907227,8.49633789 C24.6987305,8.64656576 24.3644206,8.72167969 23.987793,8.72167969 C23.5900065,8.72167969 23.2599284,8.6254069 22.9975586,8.43286133 C22.7351888,8.24031576 22.6040039,7.97054036 22.6040039,7.62353516 L22.6040039,7.61083984 C22.6040039,7.27229818 22.7235514,7.00992839 22.9626465,6.82373047 C23.2017415,6.63753255 23.581543,6.5296224 24.1020508,6.5 L26.4824219,6.34765625 L26.4824219,5.46533203 L23.96875,5.61767578 C23.4397786,5.64729818 22.9890951,5.74462891 22.6166992,5.90966797 C22.2443034,6.07470703 21.9607747,6.30216471 21.7661133,6.59204102 C21.5714518,6.88191732 21.4741211,7.22998047 21.4741211,7.63623047 L21.4741211,7.64892578 C21.4741211,8.06363932 21.5746257,8.42333984 21.7756348,8.72802734 C21.9766439,9.03271484 22.2495931,9.26757812 22.5944824,9.43261719 C22.9393717,9.59765625 23.3276367,9.68017578 23.7592773,9.68017578 Z" id="Path"></path>
                <path d="M31.4082031,9.61035156 C31.5182292,9.61035156 31.6261393,9.60400391 31.7319336,9.59130859 C31.8377279,9.57861328 31.9435221,9.56380208 32.0493164,9.546875 L32.0493164,8.60742188 C31.9477539,8.61588542 31.8620605,8.62223307 31.7922363,8.62646484 C31.7224121,8.63069661 31.6388346,8.6328125 31.5415039,8.6328125 C31.1860352,8.6328125 30.9321289,8.54500326 30.7797852,8.36938477 C30.6274414,8.19376628 30.5512695,7.90494792 30.5512695,7.50292969 L30.5512695,3.63085938 L32.0493164,3.63085938 L32.0493164,2.71679688 L30.5512695,2.71679688 L30.5512695,0.945800781 L29.4086914,0.945800781 L29.4086914,2.71679688 L28.3295898,2.71679688 L28.3295898,3.63085938 L29.4086914,3.63085938 L29.4086914,7.78222656 C29.4086914,8.43391927 29.5663249,8.90152995 29.8815918,9.18505859 C30.1968587,9.46858724 30.7057292,9.61035156 31.4082031,9.61035156 Z" id="Path"></path>
                <path d="M36.3212891,9.68017578 C36.7233073,9.68017578 37.0861816,9.62833659 37.4099121,9.5246582 C37.7336426,9.42097982 38.0139974,9.28133138 38.2509766,9.10571289 C38.4879557,8.9300944 38.6815592,8.73331706 38.8317871,8.51538086 C38.982015,8.29744466 39.0867513,8.07210286 39.1459961,7.83935547 L39.1586914,7.78857422 L38.0541992,7.78857422 L38.0288086,7.84570312 C37.9695638,7.98111979 37.8658854,8.11442057 37.7177734,8.24560547 C37.5696615,8.37679036 37.3813477,8.48470052 37.152832,8.56933594 C36.9243164,8.65397135 36.655599,8.69628906 36.3466797,8.69628906 C35.9319661,8.69628906 35.5722656,8.60424805 35.2675781,8.42016602 C34.9628906,8.23608398 34.7280273,7.97159831 34.5629883,7.62670898 C34.3979492,7.28181966 34.3154297,6.86604818 34.3154297,6.37939453 L34.3154297,5.94140625 C34.3154297,5.42936198 34.4000651,4.99772135 34.5693359,4.64648438 C34.7386068,4.2952474 34.9681803,4.02970378 35.2580566,3.84985352 C35.5479329,3.67000326 35.8769531,3.58007812 36.2451172,3.58007812 C36.6132812,3.58007812 36.9391276,3.66577148 37.2226562,3.8371582 C37.5061849,4.00854492 37.7283529,4.26774089 37.8891602,4.61474609 C38.0499674,4.9617513 38.1303711,5.40397135 38.1303711,5.94140625 L38.1303711,6.37939453 L38.6762695,5.57324219 L33.7568359,5.57324219 L33.7568359,6.45556641 L39.2412109,6.45556641 L39.2412109,6.02392578 C39.2412109,5.34261068 39.1216634,4.74487305 38.8825684,4.23071289 C38.6434733,3.71655273 38.3006999,3.31559245 37.854248,3.02783203 C37.4077962,2.74007161 36.8735352,2.59619141 36.2514648,2.59619141 C35.6336263,2.59619141 35.0940755,2.74641927 34.6328125,3.046875 C34.1715495,3.34733073 33.8150228,3.76416016 33.5632324,4.29736328 C33.3114421,4.83056641 33.1855469,5.45052083 33.1855469,6.15722656 L33.1855469,6.16357422 C33.1855469,6.87874349 33.3114421,7.49975586 33.5632324,8.02661133 C33.8150228,8.5534668 34.1747233,8.96077474 34.642334,9.24853516 C35.1099447,9.53629557 35.6695964,9.68017578 36.3212891,9.68017578 Z" id="Path"></path>
                <path d="M40.8789062,9.55957031 L41.9833984,9.55957031 L41.9833984,5.31933594 C41.9833984,4.98502604 42.0606283,4.69303385 42.2150879,4.44335938 C42.3695475,4.1936849 42.582194,3.99902344 42.8530273,3.859375 C43.1238607,3.71972656 43.4348958,3.64990234 43.7861328,3.64990234 C43.9088542,3.64990234 44.0241699,3.65519206 44.1320801,3.66577148 C44.2399902,3.67635091 44.3510742,3.69222005 44.465332,3.71337891 L44.465332,2.640625 C44.410319,2.63216146 44.3309733,2.62263997 44.2272949,2.61206055 C44.1236165,2.60148112 44.0188802,2.59619141 43.9130859,2.59619141 C43.4518229,2.59619141 43.0646159,2.69563802 42.7514648,2.89453125 C42.4383138,3.09342448 42.2161458,3.37272135 42.0849609,3.73242188 L41.9833984,3.73242188 L41.9833984,2.71679688 L40.8789062,2.71679688 L40.8789062,9.55957031 Z" id="Path"></path>
                <polygon id="Path" points="49.4736328 9.55957031 50.5400391 9.55957031 50.5400391 2.56445312 51.0986328 2.56445312 49.8227539 0.653808594 53.5043945 9.55957031 54.4692383 9.55957031 58.1572266 0.653808594 56.875 2.56445312 57.4335938 2.56445312 57.4335938 9.55957031 58.5 9.55957031 58.5 0.399902344 57.1733398 0.399902344 54.0375977 8.04248047 53.9360352 8.04248047 50.800293 0.399902344 49.4736328 0.399902344"></polygon>
                <path d="M62.4990234,9.68017578 C62.8079427,9.68017578 63.0914714,9.63680013 63.3496094,9.55004883 C63.6077474,9.46329753 63.8394368,9.33528646 64.0446777,9.16601562 C64.2499186,8.99674479 64.4244792,8.79150391 64.5683594,8.55029297 L64.6699219,8.55029297 L64.6699219,9.55957031 L65.7744141,9.55957031 L65.7744141,4.875 C65.7744141,4.40104167 65.6739095,3.99373372 65.4729004,3.65307617 C65.2718913,3.31241862 64.9777832,3.05110677 64.5905762,2.86914062 C64.2033691,2.68717448 63.7304688,2.59619141 63.171875,2.59619141 C62.6852214,2.59619141 62.2514648,2.67130534 61.8706055,2.8215332 C61.4897461,2.97176107 61.1797689,3.18123372 60.9406738,3.44995117 C60.7015788,3.71866862 60.5524089,4.0328776 60.4931641,4.39257812 L60.4868164,4.43066406 L61.5913086,4.43066406 L61.5976562,4.41162109 C61.6865234,4.14501953 61.8621419,3.9387207 62.1245117,3.79272461 C62.3868815,3.64672852 62.7233073,3.57373047 63.1337891,3.57373047 C63.6458333,3.57373047 64.0298665,3.68481445 64.2858887,3.90698242 C64.5419108,4.12915039 64.6699219,4.45182292 64.6699219,4.875 L64.6699219,7.0078125 C64.6699219,7.33365885 64.5863444,7.62565104 64.4191895,7.88378906 C64.2520345,8.14192708 64.0224609,8.34611003 63.7304688,8.49633789 C63.4384766,8.64656576 63.1041667,8.72167969 62.7275391,8.72167969 C62.3297526,8.72167969 61.9996745,8.6254069 61.7373047,8.43286133 C61.4749349,8.24031576 61.34375,7.97054036 61.34375,7.62353516 L61.34375,7.61083984 C61.34375,7.27229818 61.4632975,7.00992839 61.7023926,6.82373047 C61.9414876,6.63753255 62.3212891,6.5296224 62.8417969,6.5 L65.222168,6.34765625 L65.222168,5.46533203 L62.7084961,5.61767578 C62.1795247,5.64729818 61.7288411,5.74462891 61.3564453,5.90966797 C60.9840495,6.07470703 60.7005208,6.30216471 60.5058594,6.59204102 C60.3111979,6.88191732 60.2138672,7.22998047 60.2138672,7.63623047 L60.2138672,7.64892578 C60.2138672,8.06363932 60.3143717,8.42333984 60.5153809,8.72802734 C60.71639,9.03271484 60.9893392,9.26757812 61.3342285,9.43261719 C61.6791178,9.59765625 62.0673828,9.68017578 62.4990234,9.68017578 Z" id="Path"></path>
                <path d="M67.7167969,9.55957031 L68.8212891,9.55957031 L68.8212891,5.50976562 C68.8212891,5.1077474 68.8942871,4.76285807 69.0402832,4.47509766 C69.1862793,4.18733724 69.3925781,3.96516927 69.6591797,3.80859375 C69.9257812,3.65201823 70.2410482,3.57373047 70.6049805,3.57373047 C71.1508789,3.57373047 71.5539551,3.72290039 71.814209,4.02124023 C72.0744629,4.31958008 72.2045898,4.77766927 72.2045898,5.39550781 L72.2045898,9.55957031 L73.309082,9.55957031 L73.309082,5.12890625 C73.309082,4.31640625 73.1027832,3.69116211 72.6901855,3.25317383 C72.2775879,2.81518555 71.6861979,2.59619141 70.9160156,2.59619141 C70.4124349,2.59619141 69.9977214,2.69669596 69.671875,2.89770508 C69.3460286,3.09871419 69.0963542,3.3811849 68.9228516,3.74511719 L68.8212891,3.74511719 L68.8212891,2.71679688 L67.7167969,2.71679688 L67.7167969,9.55957031 Z" id="Path"></path>
                <path d="M78.0253906,9.68017578 C78.5755208,9.68017578 79.0452474,9.58919271 79.4345703,9.40722656 C79.8238932,9.22526042 80.1370443,8.97452799 80.3740234,8.6550293 C80.6110026,8.3355306 80.7760417,7.97054036 80.8691406,7.56005859 L80.8818359,7.49023438 L79.7900391,7.49658203 L79.7773438,7.53466797 C79.6503906,7.91552734 79.440918,8.20540365 79.1489258,8.40429688 C78.8569336,8.6031901 78.480306,8.70263672 78.019043,8.70263672 C77.612793,8.70263672 77.2594401,8.59684245 76.9589844,8.38525391 C76.6585286,8.17366536 76.4257812,7.87426758 76.2607422,7.48706055 C76.0957031,7.09985352 76.0131836,6.64388021 76.0131836,6.11914062 L76.0131836,6.10644531 C76.0131836,5.59016927 76.0946452,5.14265951 76.2575684,4.76391602 C76.4204915,4.38517253 76.652181,4.0921224 76.9526367,3.88476562 C77.2530924,3.67740885 77.6085612,3.57373047 78.019043,3.57373047 C78.5099284,3.57373047 78.905599,3.69222005 79.2060547,3.92919922 C79.5065104,4.16617839 79.699056,4.4539388 79.7836914,4.79248047 L79.7900391,4.81152344 L80.8881836,4.81152344 L80.8818359,4.7734375 C80.8141276,4.3671875 80.659668,4.00008138 80.418457,3.67211914 C80.1772461,3.3441569 79.8556315,3.08284505 79.4536133,2.88818359 C79.0515951,2.69352214 78.5734049,2.59619141 78.019043,2.59619141 C77.3800456,2.59619141 76.8256836,2.74112956 76.355957,3.03100586 C75.8862305,3.32088216 75.5233561,3.7281901 75.267334,4.25292969 C75.0113118,4.77766927 74.8833008,5.39550781 74.8833008,6.10644531 L74.8833008,6.11914062 C74.8833008,6.84277344 75.0123698,7.47119141 75.2705078,8.00439453 C75.5286458,8.53759766 75.8925781,8.95019531 76.3623047,9.2421875 C76.8320312,9.53417969 77.3863932,9.68017578 78.0253906,9.68017578 Z" id="Path"></path>
                <path d="M82.487793,9.55957031 L83.5922852,9.55957031 L83.5922852,5.50976562 C83.5922852,5.1077474 83.6652832,4.76285807 83.8112793,4.47509766 C83.9572754,4.18733724 84.1635742,3.96516927 84.4301758,3.80859375 C84.6967773,3.65201823 85.0120443,3.57373047 85.3759766,3.57373047 C85.921875,3.57373047 86.3249512,3.72290039 86.5852051,4.02124023 C86.845459,4.31958008 86.9755859,4.77766927 86.9755859,5.39550781 L86.9755859,9.55957031 L88.0800781,9.55957031 L88.0800781,5.12890625 C88.0800781,4.58723958 87.9869792,4.12809245 87.8007812,3.75146484 C87.6145833,3.37483724 87.34375,3.08813477 86.9882812,2.89135742 C86.6328125,2.69458008 86.199056,2.59619141 85.6870117,2.59619141 C85.183431,2.59619141 84.7687174,2.69669596 84.4428711,2.89770508 C84.1170247,3.09871419 83.8673503,3.3811849 83.6938477,3.74511719 L83.5922852,3.74511719 L83.5922852,0 L82.487793,0 L82.487793,9.55957031 Z" id="Path"></path>
                <path d="M92.7900391,9.68017578 C93.1920573,9.68017578 93.5549316,9.62833659 93.8786621,9.5246582 C94.2023926,9.42097982 94.4827474,9.28133138 94.7197266,9.10571289 C94.9567057,8.9300944 95.1503092,8.73331706 95.3005371,8.51538086 C95.450765,8.29744466 95.5555013,8.07210286 95.6147461,7.83935547 L95.6274414,7.78857422 L94.5229492,7.78857422 L94.4975586,7.84570312 C94.4383138,7.98111979 94.3346354,8.11442057 94.1865234,8.24560547 C94.0384115,8.37679036 93.8500977,8.48470052 93.621582,8.56933594 C93.3930664,8.65397135 93.124349,8.69628906 92.8154297,8.69628906 C92.4007161,8.69628906 92.0410156,8.60424805 91.7363281,8.42016602 C91.4316406,8.23608398 91.1967773,7.97159831 91.0317383,7.62670898 C90.8666992,7.28181966 90.7841797,6.86604818 90.7841797,6.37939453 L90.7841797,5.94140625 C90.7841797,5.42936198 90.8688151,4.99772135 91.0380859,4.64648438 C91.2073568,4.2952474 91.4369303,4.02970378 91.7268066,3.84985352 C92.0166829,3.67000326 92.3457031,3.58007812 92.7138672,3.58007812 C93.0820312,3.58007812 93.4078776,3.66577148 93.6914062,3.8371582 C93.9749349,4.00854492 94.1971029,4.26774089 94.3579102,4.61474609 C94.5187174,4.9617513 94.5991211,5.40397135 94.5991211,5.94140625 L94.5991211,6.37939453 L95.1450195,5.57324219 L90.2255859,5.57324219 L90.2255859,6.45556641 L95.7099609,6.45556641 L95.7099609,6.02392578 C95.7099609,5.34261068 95.5904134,4.74487305 95.3513184,4.23071289 C95.1122233,3.71655273 94.7694499,3.31559245 94.322998,3.02783203 C93.8765462,2.74007161 93.3422852,2.59619141 92.7202148,2.59619141 C92.1023763,2.59619141 91.5628255,2.74641927 91.1015625,3.046875 C90.6402995,3.34733073 90.2837728,3.76416016 90.0319824,4.29736328 C89.7801921,4.83056641 89.6542969,5.45052083 89.6542969,6.15722656 L89.6542969,6.16357422 C89.6542969,6.87874349 89.7801921,7.49975586 90.0319824,8.02661133 C90.2837728,8.5534668 90.6434733,8.96077474 91.111084,9.24853516 C91.5786947,9.53629557 92.1383464,9.68017578 92.7900391,9.68017578 Z" id="Path"></path>
                <path d="M99.6962891,9.68017578 C100.216797,9.68017578 100.68335,9.59342448 101.095947,9.41992188 C101.508545,9.24641927 101.835449,9.00415039 102.07666,8.69311523 C102.317871,8.38208008 102.438477,8.0234375 102.438477,7.6171875 L102.438477,7.60449219 C102.438477,7.27864583 102.368652,6.99723307 102.229004,6.76025391 C102.089355,6.52327474 101.878825,6.32226562 101.597412,6.15722656 C101.315999,5.9921875 100.959473,5.85888672 100.527832,5.75732422 L99.4741211,5.50341797 C99.2075195,5.43570964 98.9895833,5.35742188 98.8203125,5.26855469 C98.6510417,5.1796875 98.5262044,5.07600911 98.4458008,4.95751953 C98.3653971,4.83902995 98.3251953,4.70361328 98.3251953,4.55126953 L98.3251953,4.53857422 C98.3251953,4.33544922 98.386556,4.15771484 98.5092773,4.00537109 C98.6319987,3.85302734 98.7991536,3.73347982 99.0107422,3.64672852 C99.2223307,3.55997721 99.4635417,3.51660156 99.734375,3.51660156 C100.149089,3.51660156 100.485514,3.60123698 100.743652,3.77050781 C101.00179,3.93977865 101.166829,4.15983073 101.23877,4.43066406 L101.23877,4.43066406 L102.324219,4.43066406 L102.324219,4.43066406 C102.273438,4.05826823 102.134847,3.73453776 101.908447,3.45947266 C101.682048,3.18440755 101.383708,2.97176107 101.013428,2.8215332 C100.643148,2.67130534 100.218913,2.59619141 99.7407227,2.59619141 C99.2583008,2.59619141 98.8245443,2.68294271 98.4394531,2.85644531 C98.054362,3.02994792 97.7507324,3.26692708 97.5285645,3.56738281 C97.3063965,3.86783854 97.1953125,4.20849609 97.1953125,4.58935547 L97.1953125,4.59570312 C97.1953125,4.92154948 97.2609049,5.20402018 97.3920898,5.44311523 C97.5232747,5.68221029 97.7263997,5.8832194 98.0014648,6.04614258 C98.2765299,6.20906576 98.6277669,6.34130859 99.0551758,6.44287109 L100.115234,6.69677734 C100.538411,6.79833984 100.843099,6.93058268 101.029297,7.09350586 C101.215495,7.25642904 101.308594,7.45426432 101.308594,7.68701172 L101.308594,7.69970703 C101.308594,7.9070638 101.240885,8.09008789 101.105469,8.2487793 C100.970052,8.4074707 100.784912,8.53230794 100.550049,8.62329102 C100.315186,8.71427409 100.043294,8.75976562 99.734375,8.75976562 C99.2985026,8.75976562 98.9451497,8.67301432 98.6743164,8.49951172 C98.4034831,8.32600911 98.2215169,8.09749349 98.128418,7.81396484 L98.128418,7.81396484 L96.9985352,7.81396484 L96.9985352,7.81396484 C97.0408529,8.19059245 97.1794434,8.51855469 97.4143066,8.79785156 C97.6491699,9.07714844 97.961263,9.29402669 98.3505859,9.44848633 C98.7399089,9.60294596 99.1884766,9.68017578 99.6962891,9.68017578 Z" id="Path"></path>
                <path d="M106.443848,9.61035156 C106.553874,9.61035156 106.661784,9.60400391 106.767578,9.59130859 C106.873372,9.57861328 106.979167,9.56380208 107.084961,9.546875 L107.084961,8.60742188 C106.983398,8.61588542 106.897705,8.62223307 106.827881,8.62646484 C106.758057,8.63069661 106.674479,8.6328125 106.577148,8.6328125 C106.22168,8.6328125 105.967773,8.54500326 105.81543,8.36938477 C105.663086,8.19376628 105.586914,7.90494792 105.586914,7.50292969 L105.586914,3.63085938 L107.084961,3.63085938 L107.084961,2.71679688 L105.586914,2.71679688 L105.586914,0.945800781 L104.444336,0.945800781 L104.444336,2.71679688 L103.365234,2.71679688 L103.365234,3.63085938 L104.444336,3.63085938 L104.444336,7.78222656 C104.444336,8.43391927 104.601969,8.90152995 104.917236,9.18505859 C105.232503,9.46858724 105.741374,9.61035156 106.443848,9.61035156 Z" id="Path"></path>
                <path d="M111.356934,9.68017578 C111.758952,9.68017578 112.121826,9.62833659 112.445557,9.5246582 C112.769287,9.42097982 113.049642,9.28133138 113.286621,9.10571289 C113.5236,8.9300944 113.717204,8.73331706 113.867432,8.51538086 C114.01766,8.29744466 114.122396,8.07210286 114.181641,7.83935547 L114.194336,7.78857422 L113.089844,7.78857422 L113.064453,7.84570312 C113.005208,7.98111979 112.90153,8.11442057 112.753418,8.24560547 C112.605306,8.37679036 112.416992,8.48470052 112.188477,8.56933594 C111.959961,8.65397135 111.691243,8.69628906 111.382324,8.69628906 C110.967611,8.69628906 110.60791,8.60424805 110.303223,8.42016602 C109.998535,8.23608398 109.763672,7.97159831 109.598633,7.62670898 C109.433594,7.28181966 109.351074,6.86604818 109.351074,6.37939453 L109.351074,5.94140625 C109.351074,5.42936198 109.43571,4.99772135 109.60498,4.64648438 C109.774251,4.2952474 110.003825,4.02970378 110.293701,3.84985352 C110.583577,3.67000326 110.912598,3.58007812 111.280762,3.58007812 C111.648926,3.58007812 111.974772,3.66577148 112.258301,3.8371582 C112.541829,4.00854492 112.763997,4.26774089 112.924805,4.61474609 C113.085612,4.9617513 113.166016,5.40397135 113.166016,5.94140625 L113.166016,6.37939453 L113.711914,5.57324219 L108.79248,5.57324219 L108.79248,6.45556641 L114.276855,6.45556641 L114.276855,6.02392578 C114.276855,5.34261068 114.157308,4.74487305 113.918213,4.23071289 C113.679118,3.71655273 113.336344,3.31559245 112.889893,3.02783203 C112.443441,2.74007161 111.90918,2.59619141 111.287109,2.59619141 C110.669271,2.59619141 110.12972,2.74641927 109.668457,3.046875 C109.207194,3.34733073 108.850667,3.76416016 108.598877,4.29736328 C108.347087,4.83056641 108.221191,5.45052083 108.221191,6.15722656 L108.221191,6.16357422 C108.221191,6.87874349 108.347087,7.49975586 108.598877,8.02661133 C108.850667,8.5534668 109.210368,8.96077474 109.677979,9.24853516 C110.145589,9.53629557 110.705241,9.68017578 111.356934,9.68017578 Z" id="Path"></path>
                <path d="M115.914551,9.55957031 L117.019043,9.55957031 L117.019043,5.31933594 C117.019043,4.98502604 117.096273,4.69303385 117.250732,4.44335938 C117.405192,4.1936849 117.617839,3.99902344 117.888672,3.859375 C118.159505,3.71972656 118.47054,3.64990234 118.821777,3.64990234 C118.944499,3.64990234 119.059814,3.65519206 119.167725,3.66577148 C119.275635,3.67635091 119.386719,3.69222005 119.500977,3.71337891 L119.500977,2.640625 C119.445964,2.63216146 119.366618,2.62263997 119.262939,2.61206055 C119.159261,2.60148112 119.054525,2.59619141 118.94873,2.59619141 C118.487467,2.59619141 118.10026,2.69563802 117.787109,2.89453125 C117.473958,3.09342448 117.25179,3.37272135 117.120605,3.73242188 L117.019043,3.73242188 L117.019043,2.71679688 L115.914551,2.71679688 L115.914551,9.55957031 Z" id="Path"></path>
            </g>
            <g id="Critical-Care-Networ" transform="translate(77.582, 35.9141)" fill="#6C6B69" fill-rule="nonzero">
                <path d="M14.3203125,0.5859375 C14.421875,0.8203125 14.6289062,1.48828125 14.9414062,2.58984375 C15.0820312,3.08984375 15.15625,3.62109375 15.1640625,4.18359375 L14.0976562,4.18359375 C13.3476562,3.12109375 12.5742188,2.35742188 11.7773438,1.89257812 C10.9804688,1.42773438 10.0898438,1.1953125 9.10546875,1.1953125 C7.89453125,1.1953125 6.91796875,1.66796875 6.17578125,2.61328125 C5.16796875,3.89453125 4.6640625,5.6796875 4.6640625,7.96875 C4.6640625,9.296875 4.75,10.2421875 4.921875,10.8046875 C5.203125,11.71875 5.55859375,12.4648438 5.98828125,13.0429688 C6.31640625,13.4804688 6.74609375,13.828125 7.27734375,14.0859375 C7.96484375,14.4375 8.69921875,14.6132812 9.48046875,14.6132812 C10.3398438,14.6132812 11.1699219,14.3457031 11.9707031,13.8105469 C12.7714844,13.2753906 13.5390625,12.4765625 14.2734375,11.4140625 C14.5625,11.359375 14.9414062,11.328125 15.4101562,11.3203125 C15.3789062,11.6171875 15.328125,11.9257812 15.2578125,12.2460938 C15.234375,12.3710938 15.1445312,12.8671875 14.9882812,13.734375 L14.8828125,14.0859375 L14.71875,14.6367188 C14.2421875,15.0039062 13.5722656,15.2792969 12.7089844,15.4628906 C11.8457031,15.6464844 10.7851562,15.7382812 9.52734375,15.7382812 C8.56640625,15.7382812 7.65820312,15.6484375 6.80273438,15.46875 C5.94726562,15.2890625 5.21484375,15.0039062 4.60546875,14.6132812 C3.71484375,14.0507812 3.015625,13.4414062 2.5078125,12.7851562 C2,12.1289062 1.62304688,11.4140625 1.37695312,10.640625 C1.13085938,9.8671875 1.0078125,9 1.0078125,8.0390625 C1.0078125,5.7109375 1.77539062,3.7890625 3.31054688,2.2734375 C4.84570312,0.7578125 6.8046875,0 9.1875,0 C10.15625,0 11.0683594,0.048828125 11.9238281,0.146484375 C12.7792969,0.244140625 13.578125,0.390625 14.3203125,0.5859375 Z" id="Path"></path>
                <path d="M16.6289062,14.9414062 C16.7304688,14.8554688 16.8632812,14.7929688 17.0273438,14.7539062 C17.4257812,14.6679688 17.8046875,14.5117188 18.1640625,14.2851562 C18.234375,14.0976562 18.2695312,13.4648438 18.2695312,12.3867188 C18.2695312,10.4101562 18.2265625,9.07421875 18.140625,8.37890625 C18.125,8.25390625 18.0625,8.14453125 17.953125,8.05078125 C17.7578125,7.94921875 17.4921875,7.859375 17.15625,7.78125 C17,7.7421875 16.90625,7.65625 16.875,7.5234375 L16.8398438,7.08984375 C17.4179688,7.01171875 17.9414062,6.81445312 18.4101562,6.49804688 C18.8789062,6.18164062 19.2304688,5.859375 19.4648438,5.53125 C19.5898438,5.3515625 19.6992188,5.21484375 19.7929688,5.12109375 L20.6132812,5.0859375 C20.6523438,5.265625 20.671875,5.4140625 20.671875,5.53125 C20.671875,5.6171875 20.6679688,5.72265625 20.6601562,5.84765625 C20.6523438,6.12109375 20.6484375,6.34765625 20.6484375,6.52734375 C20.6484375,6.61328125 20.6523438,6.9375 20.6601562,7.5 C20.9804688,6.953125 21.2148438,6.5859375 21.3632812,6.3984375 C21.4335938,6.3125 21.640625,6.12109375 21.984375,5.82421875 C22.25,5.62890625 22.5507812,5.53125 22.8867188,5.53125 C23.3007812,5.53125 23.6601562,5.671875 23.9648438,5.953125 C24.2695312,6.234375 24.421875,6.55859375 24.421875,6.92578125 C24.421875,7.29296875 24.3066406,7.62304688 24.0761719,7.91601562 C23.8457031,8.20898438 23.5390625,8.35546875 23.15625,8.35546875 C22.8203125,8.35546875 22.46875,8.21484375 22.1015625,7.93359375 C21.8828125,7.76171875 21.7070312,7.67578125 21.5742188,7.67578125 L21.4921875,7.6875 C21.328125,7.7421875 21.1796875,7.890625 21.046875,8.1328125 C20.828125,8.5234375 20.71875,8.9296875 20.71875,9.3515625 L20.7421875,9.66796875 C20.7734375,10.2460938 20.796875,11.6015625 20.8125,13.734375 C20.8359375,13.9296875 20.9101562,14.125 21.0351562,14.3203125 C21.1757812,14.4296875 21.3183594,14.5078125 21.4628906,14.5546875 C21.6074219,14.6015625 21.859375,14.640625 22.21875,14.671875 C22.578125,14.703125 22.796875,14.7519531 22.875,14.8183594 C22.953125,14.8847656 22.9921875,14.9921875 22.9921875,15.140625 C22.9921875,15.2265625 22.96875,15.3398438 22.921875,15.4804688 L21.8203125,15.4804688 L19.5820312,15.3632812 C19.0195312,15.3632812 18.5078125,15.3867188 18.046875,15.4335938 L17.8476562,15.4335938 C17.7929688,15.4335938 17.3867188,15.453125 16.6289062,15.4921875 C16.6054688,15.3671875 16.59375,15.2734375 16.59375,15.2109375 C16.59375,15.1484375 16.6054688,15.0585938 16.6289062,14.9414062 Z" id="Path"></path>
                <path d="M26.4375,1.53515625 C26.4375,1.11328125 26.5742188,0.767578125 26.8476562,0.498046875 C27.1210938,0.228515625 27.4726562,0.09375 27.9023438,0.09375 C28.3632812,0.09375 28.7460938,0.236328125 29.0507812,0.521484375 C29.3554688,0.806640625 29.5078125,1.12890625 29.5078125,1.48828125 C29.5078125,1.75390625 29.4472656,2.01953125 29.3261719,2.28515625 C29.2050781,2.55078125 29.0136719,2.76367188 28.7519531,2.92382812 C28.4902344,3.08398438 28.2226562,3.1640625 27.9492188,3.1640625 C27.5742188,3.1640625 27.2285156,3.00390625 26.9121094,2.68359375 C26.5957031,2.36328125 26.4375,1.98046875 26.4375,1.53515625 Z M24.796875,15.515625 L24.7734375,14.7539062 L26.0976562,14.578125 C26.2929688,14.5234375 26.4277344,14.4433594 26.5019531,14.3378906 C26.5761719,14.2324219 26.6132812,13.9960938 26.6132812,13.6289062 L26.6132812,13.5 C26.6132812,13.40625 26.6191406,13.2363281 26.6308594,12.9902344 C26.6425781,12.7441406 26.6484375,12.5273438 26.6484375,12.3398438 C26.6484375,12.1914062 26.6367188,11.90625 26.6132812,11.484375 L26.625,10.8984375 L26.6132812,10.3476562 L26.6367188,8.4375 C26.6367188,8.1953125 26.6132812,7.9453125 26.5664062,7.6875 C26.4804688,7.5703125 26.3242188,7.46875 26.0976562,7.3828125 C25.8710938,7.296875 25.4765625,7.234375 24.9140625,7.1953125 L24.9140625,6.5390625 C25.71875,6.4921875 26.4257812,6.32421875 27.0351562,6.03515625 C27.4492188,5.84765625 27.8984375,5.515625 28.3828125,5.0390625 L29.1679688,5.0390625 C29.1992188,6.0078125 29.2148438,7.265625 29.2148438,8.8125 L29.1328125,13.59375 C29.1328125,13.921875 29.1484375,14.21875 29.1796875,14.484375 C29.421875,14.5703125 29.8164062,14.65625 30.3632812,14.7421875 C30.5742188,14.7734375 30.7421875,14.8125 30.8671875,14.859375 L30.8554688,15.5039062 C30.6445312,15.5117188 30.4882812,15.515625 30.3867188,15.515625 C30.2695312,15.515625 30.0898438,15.5078125 29.8476562,15.4921875 C29.0507812,15.453125 27.984375,15.4335938 26.6484375,15.4335938 C26.265625,15.4335938 25.8945312,15.4472656 25.5351562,15.4746094 C25.1757812,15.5019531 24.9296875,15.515625 24.796875,15.515625 Z" id="Shape"></path>
                <path d="M31.8632812,6.6328125 C32.7851562,6.2421875 33.4511719,5.859375 33.8613281,5.484375 C34.2714844,5.109375 34.7109375,4.5 35.1796875,3.65625 L35.8359375,3.65625 C35.90625,3.859375 35.9414062,4.07421875 35.9414062,4.30078125 C35.9414062,4.70703125 35.9375,5.0234375 35.9296875,5.25 L35.8945312,5.94140625 C35.8945312,5.98046875 35.8984375,6.0703125 35.90625,6.2109375 L36.1757812,6.22265625 C36.2148438,6.22265625 36.5820312,6.20703125 37.2773438,6.17578125 C37.3320312,6.17578125 37.625,6.16796875 38.15625,6.15234375 C38.203125,6.36328125 38.2265625,6.55078125 38.2265625,6.71484375 C38.2265625,6.89453125 38.1992188,7.10546875 38.1445312,7.34765625 C37.8867188,7.37890625 37.6914062,7.39453125 37.5585938,7.39453125 C37.4960938,7.39453125 37.3710938,7.38671875 37.1835938,7.37109375 L36.5742188,7.37109375 L36.3632812,7.359375 L35.8007812,7.3828125 L35.7773438,11.859375 C35.7695312,12.7265625 35.7871094,13.2675781 35.8300781,13.4824219 C35.8730469,13.6972656 35.9648438,13.9023438 36.1054688,14.0976562 C36.2851562,14.1835938 36.484375,14.2265625 36.703125,14.2265625 C36.9140625,14.2265625 37.0703125,14.2070312 37.171875,14.1679688 C37.2734375,14.1289062 37.4453125,14.015625 37.6875,13.828125 C37.734375,13.7890625 37.8085938,13.734375 37.9101562,13.6640625 C38.0976562,13.8125 38.25,13.9609375 38.3671875,14.109375 L38.4140625,14.25 C38.140625,14.6796875 37.7558594,15.0175781 37.2597656,15.2636719 C36.7636719,15.5097656 36.234375,15.6328125 35.671875,15.6328125 C34.9453125,15.6328125 34.3554688,15.4023438 33.9023438,14.9414062 C33.4492188,14.4804688 33.2226562,13.765625 33.2226562,12.796875 L33.2695312,10.734375 L33.2695312,7.39453125 L32.90625,7.3828125 L32.0625,7.39453125 L31.9101562,7.359375 C31.8632812,7.2890625 31.8398438,7.22265625 31.8398438,7.16015625 C31.8398438,7.11328125 31.8476562,6.9375 31.8632812,6.6328125 Z" id="Path"></path>
                <path d="M40.6875,1.53515625 C40.6875,1.11328125 40.8242188,0.767578125 41.0976562,0.498046875 C41.3710938,0.228515625 41.7226562,0.09375 42.1523438,0.09375 C42.6132812,0.09375 42.9960938,0.236328125 43.3007812,0.521484375 C43.6054688,0.806640625 43.7578125,1.12890625 43.7578125,1.48828125 C43.7578125,1.75390625 43.6972656,2.01953125 43.5761719,2.28515625 C43.4550781,2.55078125 43.2636719,2.76367188 43.0019531,2.92382812 C42.7402344,3.08398438 42.4726562,3.1640625 42.1992188,3.1640625 C41.8242188,3.1640625 41.4785156,3.00390625 41.1621094,2.68359375 C40.8457031,2.36328125 40.6875,1.98046875 40.6875,1.53515625 Z M39.046875,15.515625 L39.0234375,14.7539062 L40.3476562,14.578125 C40.5429688,14.5234375 40.6777344,14.4433594 40.7519531,14.3378906 C40.8261719,14.2324219 40.8632812,13.9960938 40.8632812,13.6289062 L40.8632812,13.5 C40.8632812,13.40625 40.8691406,13.2363281 40.8808594,12.9902344 C40.8925781,12.7441406 40.8984375,12.5273438 40.8984375,12.3398438 C40.8984375,12.1914062 40.8867188,11.90625 40.8632812,11.484375 L40.875,10.8984375 L40.8632812,10.3476562 L40.8867188,8.4375 C40.8867188,8.1953125 40.8632812,7.9453125 40.8164062,7.6875 C40.7304688,7.5703125 40.5742188,7.46875 40.3476562,7.3828125 C40.1210938,7.296875 39.7265625,7.234375 39.1640625,7.1953125 L39.1640625,6.5390625 C39.96875,6.4921875 40.6757812,6.32421875 41.2851562,6.03515625 C41.6992188,5.84765625 42.1484375,5.515625 42.6328125,5.0390625 L43.4179688,5.0390625 C43.4492188,6.0078125 43.4648438,7.265625 43.4648438,8.8125 L43.3828125,13.59375 C43.3828125,13.921875 43.3984375,14.21875 43.4296875,14.484375 C43.671875,14.5703125 44.0664062,14.65625 44.6132812,14.7421875 C44.8242188,14.7734375 44.9921875,14.8125 45.1171875,14.859375 L45.1054688,15.5039062 C44.8945312,15.5117188 44.7382812,15.515625 44.6367188,15.515625 C44.5195312,15.515625 44.3398438,15.5078125 44.0976562,15.4921875 C43.3007812,15.453125 42.234375,15.4335938 40.8984375,15.4335938 C40.515625,15.4335938 40.1445312,15.4472656 39.7851562,15.4746094 C39.4257812,15.5019531 39.1796875,15.515625 39.046875,15.515625 Z" id="Shape"></path>
                <path d="M55.453125,12.4570312 C55.578125,12.5273438 55.671875,12.5742188 55.734375,12.5976562 C55.9140625,12.6757812 56.0585938,12.7734375 56.1679688,12.890625 C55.9570312,13.671875 55.4453125,14.3476562 54.6328125,14.9179688 C53.8203125,15.4882812 52.7929688,15.7734375 51.5507812,15.7734375 C50.7695312,15.7734375 49.9960938,15.609375 49.2304688,15.28125 C48.4648438,14.953125 47.8554688,14.5195312 47.4023438,13.9804688 C47.0507812,13.5664062 46.7871094,13.0585938 46.6113281,12.4570312 C46.4355469,11.8554688 46.3476562,11.34375 46.3476562,10.921875 C46.3476562,10.4140625 46.4570312,9.83789062 46.6757812,9.19335938 C46.8945312,8.54882812 47.2617188,7.94140625 47.7773438,7.37109375 C48.2929688,6.80078125 48.9433594,6.34765625 49.7285156,6.01171875 C50.5136719,5.67578125 51.3984375,5.5078125 52.3828125,5.5078125 C53.734375,5.5078125 54.6757812,5.71875 55.2070312,6.140625 C55.7382812,6.5625 56.0039062,6.984375 56.0039062,7.40625 C56.0039062,7.8203125 55.8964844,8.14648438 55.6816406,8.38476562 C55.4667969,8.62304688 55.171875,8.7421875 54.796875,8.7421875 C54.4765625,8.7421875 54.1816406,8.63671875 53.9121094,8.42578125 C53.6425781,8.21484375 53.4179688,7.859375 53.2382812,7.359375 C53.0976562,7 52.9179688,6.73828125 52.6992188,6.57421875 C52.4804688,6.41796875 52.21875,6.33984375 51.9140625,6.33984375 C51.1796875,6.33984375 50.5234375,6.65429688 49.9453125,7.28320312 C49.3671875,7.91210938 49.078125,8.76953125 49.078125,9.85546875 C49.078125,11.1601562 49.4316406,12.1972656 50.1386719,12.9667969 C50.8457031,13.7363281 51.6484375,14.1210938 52.546875,14.1210938 C52.9921875,14.1210938 53.3710938,14.0703125 53.6835938,13.96875 C53.8789062,13.8984375 54.1445312,13.7460938 54.4804688,13.5117188 C54.5664062,13.4492188 54.7285156,13.28125 54.9667969,13.0078125 C55.2050781,12.734375 55.3671875,12.5507812 55.453125,12.4570312 Z" id="Path"></path>
                <path d="M67.5117188,13.3125 L67.78125,13.4882812 C67.8515625,13.5429688 67.8945312,13.609375 67.9101562,13.6875 L67.921875,13.7460938 C67.734375,14.4414062 67.4882812,14.9199219 67.1835938,15.1816406 C66.8789062,15.4433594 66.5,15.5742188 66.046875,15.5742188 C65.5859375,15.5742188 65.1894531,15.4472656 64.8574219,15.1933594 C64.5253906,14.9394531 64.2226562,14.4921875 63.9492188,13.8515625 C63.6132812,14.4453125 63.140625,14.8925781 62.53125,15.1933594 C61.921875,15.4941406 61.1757812,15.6445312 60.2929688,15.6445312 C59.4804688,15.6445312 58.8828125,15.4746094 58.5,15.1347656 C58.1171875,14.7949219 57.9257812,14.3476562 57.9257812,13.7929688 C57.9257812,13.5351562 57.9824219,13.2734375 58.0957031,13.0078125 C58.2089844,12.7421875 58.3925781,12.4785156 58.6464844,12.2167969 C58.9003906,11.9550781 59.3085938,11.6679688 59.8710938,11.3554688 C59.9570312,11.3085938 60.2539062,11.1757812 60.7617188,10.9570312 L63.6796875,9.78515625 C63.703125,9.48828125 63.7148438,9.1875 63.7148438,8.8828125 C63.7148438,7.828125 63.5859375,7.109375 63.328125,6.7265625 C63.171875,6.4921875 62.8984375,6.375 62.5078125,6.375 C62.1171875,6.375 61.7578125,6.44921875 61.4296875,6.59765625 C61.1015625,6.74609375 60.8632812,6.9375 60.7148438,7.171875 C60.6054688,7.34375 60.5117188,7.66796875 60.4335938,8.14453125 C60.3789062,8.48828125 60.328125,8.6875 60.28125,8.7421875 C60.1640625,8.890625 59.9511719,9.02539062 59.6425781,9.14648438 C59.3339844,9.26757812 59.125,9.35546875 59.015625,9.41015625 C58.59375,9.61328125 58.2578125,9.71484375 58.0078125,9.71484375 C57.8984375,9.62109375 57.84375,9.48828125 57.84375,9.31640625 C57.84375,8.87109375 57.9375,8.48828125 58.125,8.16796875 C58.40625,7.71484375 58.8300781,7.27539062 59.3964844,6.84960938 C59.9628906,6.42382812 60.4921875,6.125 60.984375,5.953125 C61.65625,5.734375 62.4765625,5.625 63.4453125,5.625 C64.0703125,5.625 64.6074219,5.74023438 65.0566406,5.97070312 C65.5058594,6.20117188 65.8183594,6.54296875 65.9941406,6.99609375 C66.1699219,7.44921875 66.2578125,8.265625 66.2578125,9.4453125 L66.2226562,11.3789062 L66.2460938,12.796875 L66.2460938,13.1601562 C66.2460938,13.4882812 66.2910156,13.7128906 66.3808594,13.8339844 C66.4707031,13.9550781 66.5859375,14.015625 66.7265625,14.015625 C66.8125,14.015625 66.8867188,13.9921875 66.9492188,13.9453125 L67.3007812,13.3945312 L67.5117188,13.3125 Z M63.6679688,10.59375 C63.2226562,10.7421875 62.7207031,10.9902344 62.1621094,11.3378906 C61.6035156,11.6855469 61.2148438,12.0351562 60.9960938,12.3867188 C60.8398438,12.6445312 60.7617188,12.9609375 60.7617188,13.3359375 C60.7617188,13.671875 60.8632812,13.9492188 61.0664062,14.1679688 C61.2695312,14.3867188 61.5039062,14.4960938 61.7695312,14.4960938 C62.2070312,14.4960938 62.578125,14.3710938 62.8828125,14.1210938 C63.296875,13.7851562 63.5390625,13.5175781 63.609375,13.3183594 C63.6796875,13.1191406 63.7148438,12.5546875 63.7148438,11.625 C63.7148438,11.28125 63.6992188,10.9375 63.6679688,10.59375 Z" id="Shape"></path>
                <path d="M68.25,15 C68.421875,14.8828125 68.6484375,14.8085938 68.9296875,14.7773438 C69.46875,14.7148438 69.7773438,14.6328125 69.8554688,14.53125 C70.0117188,14.328125 70.0898438,13.9140625 70.0898438,13.2890625 L70.0898438,9.984375 L70.078125,9.19921875 L70.078125,6.83203125 L70.0429688,4.125 L70.0429688,3.65625 C70.0429688,3.015625 69.9921875,2.54296875 69.890625,2.23828125 C69.6171875,2.07421875 69.3242188,1.9921875 69.0117188,1.9921875 C68.8242188,1.9921875 68.6484375,1.97265625 68.484375,1.93359375 C68.4609375,1.73828125 68.4492188,1.59375 68.4492188,1.5 C68.4492188,1.4375 68.4570312,1.3671875 68.4726562,1.2890625 C69.0898438,1.21875 69.7304688,1.06054688 70.3945312,0.814453125 C71.0585938,0.568359375 71.5664062,0.31640625 71.9179688,0.05859375 L72.2460938,0.046875 C72.3164062,0.046875 72.4179688,0.05078125 72.5507812,0.05859375 C72.5898438,2.76171875 72.609375,4.61328125 72.609375,5.61328125 C72.609375,5.91015625 72.6054688,6.1484375 72.5976562,6.328125 L72.5976562,6.3984375 L72.609375,6.62109375 L72.609375,11.8125 L72.6210938,13.5234375 L72.6210938,13.8046875 C72.6210938,14.140625 72.6757812,14.3789062 72.7851562,14.5195312 C72.8789062,14.6210938 73.078125,14.6835938 73.3828125,14.7070312 C73.546875,14.7226562 73.8710938,14.7617188 74.3554688,14.8242188 C74.3945312,14.9882812 74.4140625,15.1210938 74.4140625,15.2226562 C74.4140625,15.3007812 74.40625,15.4101562 74.390625,15.5507812 L73.4648438,15.5039062 C72.9492188,15.4648438 72.3007812,15.4453125 71.5195312,15.4453125 L71.0859375,15.4335938 C70.640625,15.4335938 69.9960938,15.46875 69.1523438,15.5390625 L68.296875,15.5390625 L68.25,15 Z" id="Path"></path>
                <path d="M94.8164062,0.5859375 C94.9179688,0.8203125 95.125,1.48828125 95.4375,2.58984375 C95.578125,3.08984375 95.6523438,3.62109375 95.6601562,4.18359375 L94.59375,4.18359375 C93.84375,3.12109375 93.0703125,2.35742188 92.2734375,1.89257812 C91.4765625,1.42773438 90.5859375,1.1953125 89.6015625,1.1953125 C88.390625,1.1953125 87.4140625,1.66796875 86.671875,2.61328125 C85.6640625,3.89453125 85.1601562,5.6796875 85.1601562,7.96875 C85.1601562,9.296875 85.2460938,10.2421875 85.4179688,10.8046875 C85.6992188,11.71875 86.0546875,12.4648438 86.484375,13.0429688 C86.8125,13.4804688 87.2421875,13.828125 87.7734375,14.0859375 C88.4609375,14.4375 89.1953125,14.6132812 89.9765625,14.6132812 C90.8359375,14.6132812 91.6660156,14.3457031 92.4667969,13.8105469 C93.2675781,13.2753906 94.0351562,12.4765625 94.7695312,11.4140625 C95.0585938,11.359375 95.4375,11.328125 95.90625,11.3203125 C95.875,11.6171875 95.8242188,11.9257812 95.7539062,12.2460938 C95.7304688,12.3710938 95.640625,12.8671875 95.484375,13.734375 L95.3789062,14.0859375 L95.2148438,14.6367188 C94.7382812,15.0039062 94.0683594,15.2792969 93.2050781,15.4628906 C92.3417969,15.6464844 91.28125,15.7382812 90.0234375,15.7382812 C89.0625,15.7382812 88.1542969,15.6484375 87.2988281,15.46875 C86.4433594,15.2890625 85.7109375,15.0039062 85.1015625,14.6132812 C84.2109375,14.0507812 83.5117188,13.4414062 83.0039062,12.7851562 C82.4960938,12.1289062 82.1191406,11.4140625 81.8730469,10.640625 C81.6269531,9.8671875 81.5039062,9 81.5039062,8.0390625 C81.5039062,5.7109375 82.2714844,3.7890625 83.8066406,2.2734375 C85.3417969,0.7578125 87.3007812,0 89.6835938,0 C90.6523438,0 91.5644531,0.048828125 92.4199219,0.146484375 C93.2753906,0.244140625 94.0742188,0.390625 94.8164062,0.5859375 Z" id="Path"></path>
                <path d="M107.507812,13.3125 L107.777344,13.4882812 C107.847656,13.5429688 107.890625,13.609375 107.90625,13.6875 L107.917969,13.7460938 C107.730469,14.4414062 107.484375,14.9199219 107.179688,15.1816406 C106.875,15.4433594 106.496094,15.5742188 106.042969,15.5742188 C105.582031,15.5742188 105.185547,15.4472656 104.853516,15.1933594 C104.521484,14.9394531 104.21875,14.4921875 103.945312,13.8515625 C103.609375,14.4453125 103.136719,14.8925781 102.527344,15.1933594 C101.917969,15.4941406 101.171875,15.6445312 100.289062,15.6445312 C99.4765625,15.6445312 98.8789062,15.4746094 98.4960938,15.1347656 C98.1132812,14.7949219 97.921875,14.3476562 97.921875,13.7929688 C97.921875,13.5351562 97.9785156,13.2734375 98.0917969,13.0078125 C98.2050781,12.7421875 98.3886719,12.4785156 98.6425781,12.2167969 C98.8964844,11.9550781 99.3046875,11.6679688 99.8671875,11.3554688 C99.953125,11.3085938 100.25,11.1757812 100.757812,10.9570312 L103.675781,9.78515625 C103.699219,9.48828125 103.710938,9.1875 103.710938,8.8828125 C103.710938,7.828125 103.582031,7.109375 103.324219,6.7265625 C103.167969,6.4921875 102.894531,6.375 102.503906,6.375 C102.113281,6.375 101.753906,6.44921875 101.425781,6.59765625 C101.097656,6.74609375 100.859375,6.9375 100.710938,7.171875 C100.601562,7.34375 100.507812,7.66796875 100.429688,8.14453125 C100.375,8.48828125 100.324219,8.6875 100.277344,8.7421875 C100.160156,8.890625 99.9472656,9.02539062 99.6386719,9.14648438 C99.3300781,9.26757812 99.1210938,9.35546875 99.0117188,9.41015625 C98.5898438,9.61328125 98.2539062,9.71484375 98.0039062,9.71484375 C97.8945312,9.62109375 97.8398438,9.48828125 97.8398438,9.31640625 C97.8398438,8.87109375 97.9335938,8.48828125 98.1210938,8.16796875 C98.4023438,7.71484375 98.8261719,7.27539062 99.3925781,6.84960938 C99.9589844,6.42382812 100.488281,6.125 100.980469,5.953125 C101.652344,5.734375 102.472656,5.625 103.441406,5.625 C104.066406,5.625 104.603516,5.74023438 105.052734,5.97070312 C105.501953,6.20117188 105.814453,6.54296875 105.990234,6.99609375 C106.166016,7.44921875 106.253906,8.265625 106.253906,9.4453125 L106.21875,11.3789062 L106.242188,12.796875 L106.242188,13.1601562 C106.242188,13.4882812 106.287109,13.7128906 106.376953,13.8339844 C106.466797,13.9550781 106.582031,14.015625 106.722656,14.015625 C106.808594,14.015625 106.882812,13.9921875 106.945312,13.9453125 L107.296875,13.3945312 L107.507812,13.3125 Z M103.664062,10.59375 C103.21875,10.7421875 102.716797,10.9902344 102.158203,11.3378906 C101.599609,11.6855469 101.210938,12.0351562 100.992188,12.3867188 C100.835938,12.6445312 100.757812,12.9609375 100.757812,13.3359375 C100.757812,13.671875 100.859375,13.9492188 101.0625,14.1679688 C101.265625,14.3867188 101.5,14.4960938 101.765625,14.4960938 C102.203125,14.4960938 102.574219,14.3710938 102.878906,14.1210938 C103.292969,13.7851562 103.535156,13.5175781 103.605469,13.3183594 C103.675781,13.1191406 103.710938,12.5546875 103.710938,11.625 C103.710938,11.28125 103.695312,10.9375 103.664062,10.59375 Z" id="Shape"></path>
                <path d="M108.621094,14.9414062 C108.722656,14.8554688 108.855469,14.7929688 109.019531,14.7539062 C109.417969,14.6679688 109.796875,14.5117188 110.15625,14.2851562 C110.226562,14.0976562 110.261719,13.4648438 110.261719,12.3867188 C110.261719,10.4101562 110.21875,9.07421875 110.132812,8.37890625 C110.117188,8.25390625 110.054688,8.14453125 109.945312,8.05078125 C109.75,7.94921875 109.484375,7.859375 109.148438,7.78125 C108.992188,7.7421875 108.898438,7.65625 108.867188,7.5234375 L108.832031,7.08984375 C109.410156,7.01171875 109.933594,6.81445312 110.402344,6.49804688 C110.871094,6.18164062 111.222656,5.859375 111.457031,5.53125 C111.582031,5.3515625 111.691406,5.21484375 111.785156,5.12109375 L112.605469,5.0859375 C112.644531,5.265625 112.664062,5.4140625 112.664062,5.53125 C112.664062,5.6171875 112.660156,5.72265625 112.652344,5.84765625 C112.644531,6.12109375 112.640625,6.34765625 112.640625,6.52734375 C112.640625,6.61328125 112.644531,6.9375 112.652344,7.5 C112.972656,6.953125 113.207031,6.5859375 113.355469,6.3984375 C113.425781,6.3125 113.632812,6.12109375 113.976562,5.82421875 C114.242188,5.62890625 114.542969,5.53125 114.878906,5.53125 C115.292969,5.53125 115.652344,5.671875 115.957031,5.953125 C116.261719,6.234375 116.414062,6.55859375 116.414062,6.92578125 C116.414062,7.29296875 116.298828,7.62304688 116.068359,7.91601562 C115.837891,8.20898438 115.53125,8.35546875 115.148438,8.35546875 C114.8125,8.35546875 114.460938,8.21484375 114.09375,7.93359375 C113.875,7.76171875 113.699219,7.67578125 113.566406,7.67578125 L113.484375,7.6875 C113.320312,7.7421875 113.171875,7.890625 113.039062,8.1328125 C112.820312,8.5234375 112.710938,8.9296875 112.710938,9.3515625 L112.734375,9.66796875 C112.765625,10.2460938 112.789062,11.6015625 112.804688,13.734375 C112.828125,13.9296875 112.902344,14.125 113.027344,14.3203125 C113.167969,14.4296875 113.310547,14.5078125 113.455078,14.5546875 C113.599609,14.6015625 113.851562,14.640625 114.210938,14.671875 C114.570312,14.703125 114.789062,14.7519531 114.867188,14.8183594 C114.945312,14.8847656 114.984375,14.9921875 114.984375,15.140625 C114.984375,15.2265625 114.960938,15.3398438 114.914062,15.4804688 L113.8125,15.4804688 L111.574219,15.3632812 C111.011719,15.3632812 110.5,15.3867188 110.039062,15.4335938 L109.839844,15.4335938 C109.785156,15.4335938 109.378906,15.453125 108.621094,15.4921875 C108.597656,15.3671875 108.585938,15.2734375 108.585938,15.2109375 C108.585938,15.1484375 108.597656,15.0585938 108.621094,14.9414062 Z" id="Path"></path>
                <path d="M117.65625,9.3046875 C117.859375,8.640625 118.039062,8.19921875 118.195312,7.98046875 C118.632812,7.33984375 119.099609,6.83984375 119.595703,6.48046875 C120.091797,6.12109375 120.539062,5.8828125 120.9375,5.765625 C121.453125,5.6171875 121.871094,5.54296875 122.191406,5.54296875 C122.925781,5.54296875 123.519531,5.59960938 123.972656,5.71289062 C124.425781,5.82617188 124.804688,5.98828125 125.109375,6.19921875 C125.546875,6.50390625 125.898438,6.8125 126.164062,7.125 C126.429688,7.4375 126.646484,7.8046875 126.814453,8.2265625 C126.982422,8.6484375 127.074219,9.16015625 127.089844,9.76171875 L125.789062,9.73828125 C125.429688,9.73828125 124.640625,9.703125 123.421875,9.6328125 C122.96875,9.6015625 122.65625,9.5859375 122.484375,9.5859375 C122.429688,9.5859375 122.007812,9.58984375 121.21875,9.59765625 L120.210938,9.59765625 C120.195312,9.70703125 120.1875,9.80078125 120.1875,9.87890625 C120.1875,10.2929688 120.238281,10.7285156 120.339844,11.1855469 C120.441406,11.6425781 120.59375,12.0449219 120.796875,12.3925781 C121,12.7402344 121.251953,13.0390625 121.552734,13.2890625 C121.853516,13.5390625 122.164062,13.71875 122.484375,13.828125 L123.164062,14.0507812 C123.765625,14.0507812 124.167969,14.03125 124.371094,13.9921875 C124.746094,13.9140625 125.076172,13.8144531 125.361328,13.6933594 C125.646484,13.5722656 125.992188,13.3671875 126.398438,13.078125 C126.679688,13.28125 126.914062,13.4648438 127.101562,13.6289062 C126.414062,14.3867188 125.701172,14.9355469 124.962891,15.2753906 C124.224609,15.6152344 123.398438,15.7851562 122.484375,15.7851562 C121.867188,15.7851562 121.363281,15.7304688 120.972656,15.6210938 C120.449219,15.4804688 119.976562,15.265625 119.554688,14.9765625 C119.132812,14.6875 118.769531,14.328125 118.464844,13.8984375 C118.160156,13.46875 117.933594,13.0273438 117.785156,12.5742188 C117.589844,11.9804688 117.492188,11.5039062 117.492188,11.1445312 C117.492188,10.4648438 117.546875,9.8515625 117.65625,9.3046875 Z M124.464844,8.80078125 C124.457031,8.36328125 124.371094,7.9453125 124.207031,7.546875 C124.042969,7.1484375 123.789062,6.83789062 123.445312,6.61523438 C123.101562,6.39257812 122.753906,6.28125 122.402344,6.28125 C121.878906,6.28125 121.40625,6.51171875 120.984375,6.97265625 C120.5625,7.43359375 120.324219,8.05859375 120.269531,8.84765625 L122.941406,8.859375 C123.113281,8.859375 123.355469,8.84765625 123.667969,8.82421875 C123.894531,8.80078125 124.054688,8.7890625 124.148438,8.7890625 C124.21875,8.7890625 124.324219,8.79296875 124.464844,8.80078125 Z" id="Shape"></path>
                <path d="M0.046875,21.265625 L0,20.4453125 L0.99609375,20.4453125 L1.3359375,20.4335938 C1.8046875,20.4101562 2.12890625,20.3984375 2.30859375,20.3984375 C2.40234375,20.3984375 2.67578125,20.40625 3.12890625,20.421875 C3.23046875,20.4296875 3.31640625,20.4335938 3.38671875,20.4335938 C3.45703125,20.4335938 3.703125,20.4257812 4.125,20.4101562 C4.546875,20.3945312 4.78515625,20.3867188 4.83984375,20.3867188 C4.92578125,20.3867188 5.046875,20.390625 5.203125,20.3984375 C6.40625,21.4921875 7.38671875,22.4335938 8.14453125,23.2226562 C8.90234375,24.0117188 11.6679688,26.7734375 16.4414062,31.5078125 L16.4414062,31.2148438 L16.3945312,29.8554688 C16.3710938,29.0585938 16.3398438,28.4277344 16.3007812,27.9628906 C16.2617188,27.4980469 16.2382812,26.9433594 16.2304688,26.2988281 C16.2226562,25.6542969 16.1953125,25.0703125 16.1484375,24.546875 C16.0546875,23.5234375 16.0078125,22.9335938 16.0078125,22.7773438 C16,22.2695312 15.9453125,21.9609375 15.84375,21.8515625 C15.6796875,21.6796875 15.3046875,21.5507812 14.71875,21.4648438 C14.2890625,21.3945312 13.96875,21.3046875 13.7578125,21.1953125 L13.7695312,20.5039062 L14.0742187,20.46875 L16.3828125,20.3984375 L18.9609375,20.328125 C19.1328125,20.3203125 19.296875,20.3164062 19.453125,20.3164062 L19.4648438,21.078125 C19.2851562,21.171875 19.1015625,21.2421875 18.9140625,21.2890625 C18.4140625,21.40625 18.125,21.4882812 18.046875,21.5351562 C17.6484375,21.7617188 17.4335938,21.8984375 17.4023438,21.9453125 C17.3320312,22.0390625 17.296875,22.1835938 17.296875,22.3789062 C17.296875,22.4257812 17.3046875,22.5898438 17.3203125,22.8710938 C17.328125,23.0117188 17.3320312,23.3398438 17.3320312,23.8554688 C17.3398438,24.9882812 17.3710938,25.8828125 17.4257812,26.5390625 C17.4414062,26.75 17.453125,26.9882812 17.4609375,27.2539062 L17.5898438,31.3671875 C17.5976562,31.65625 17.6015625,31.859375 17.6015625,31.9765625 L17.6015625,33.4179688 L17.6367188,34.0273438 L17.6015625,34.6601562 C17.6328125,34.9804688 17.6484375,35.171875 17.6484375,35.234375 L17.6484375,35.8554688 L16.3007812,35.9023438 L14.90625,34.4609375 L12.0585938,31.6367188 L10.0664063,29.6445312 L8.6015625,28.1445312 C7.6484375,27.2070312 6.78125,26.3828125 6,25.671875 L4.08984375,23.9492188 L4.1953125,28.3085938 C4.203125,28.5742188 4.20703125,28.8476562 4.20703125,29.1289062 L4.1953125,29.9609375 L4.265625,31.4960938 C4.2890625,32.1367188 4.33203125,32.8320312 4.39453125,33.5820312 C4.41015625,33.7851562 4.4296875,33.9277344 4.453125,34.0097656 C4.4765625,34.0917969 4.5234375,34.2109375 4.59375,34.3671875 C4.8984375,34.4765625 5.5625,34.5585938 6.5859375,34.6132812 C6.65625,34.6289062 6.7578125,34.65625 6.890625,34.6953125 L6.9375,35.6445312 L6.48046875,35.65625 C6.23046875,35.65625 5.44140625,35.5976562 4.11328125,35.4804688 C2.87109375,35.4960938 2.04296875,35.5195312 1.62890625,35.5507812 C1.21484375,35.5820312 0.98828125,35.5976562 0.94921875,35.5976562 C0.85546875,35.5976562 0.7265625,35.5820312 0.5625,35.5507812 C0.546875,35.3710938 0.5390625,35.2148438 0.5390625,35.0820312 C0.5390625,34.9960938 0.54296875,34.8554688 0.55078125,34.6601562 C0.76953125,34.6210938 0.94921875,34.6015625 1.08984375,34.6015625 C1.13671875,34.6015625 1.2890625,34.609375 1.546875,34.625 C2.203125,34.625 2.59179688,34.5761719 2.71289062,34.4785156 C2.83398438,34.3808594 2.90234375,34.1171875 2.91796875,33.6875 C2.97265625,32.4453125 3,31.6875 3,31.4140625 L3,30.7695312 L3.0234375,26.9609375 L2.98828125,24.5820312 C2.98046875,23.6757812 2.921875,23.046875 2.8125,22.6953125 C2.765625,22.515625 2.67578125,22.359375 2.54296875,22.2265625 C2.26953125,21.9453125 1.96484375,21.734375 1.62890625,21.59375 C1.42578125,21.5078125 0.8984375,21.3984375 0.046875,21.265625 Z" id="Path"></path>
                <path d="M21.1757812,29.3046875 C21.3789062,28.640625 21.5585938,28.1992188 21.7148438,27.9804688 C22.1523438,27.3398438 22.6191406,26.8398438 23.1152344,26.4804688 C23.6113281,26.1210938 24.0585938,25.8828125 24.4570312,25.765625 C24.9726562,25.6171875 25.390625,25.5429688 25.7109375,25.5429688 C26.4453125,25.5429688 27.0390625,25.5996094 27.4921875,25.7128906 C27.9453125,25.8261719 28.3242188,25.9882812 28.6289062,26.1992188 C29.0664062,26.5039062 29.4179688,26.8125 29.6835938,27.125 C29.9492188,27.4375 30.1660156,27.8046875 30.3339844,28.2265625 C30.5019531,28.6484375 30.59375,29.1601562 30.609375,29.7617188 L29.3085938,29.7382812 C28.9492188,29.7382812 28.1601562,29.703125 26.9414062,29.6328125 C26.4882812,29.6015625 26.1757812,29.5859375 26.0039062,29.5859375 C25.9492188,29.5859375 25.5273438,29.5898438 24.7382812,29.5976562 L23.7304688,29.5976562 C23.7148438,29.7070312 23.7070312,29.8007812 23.7070312,29.8789062 C23.7070312,30.2929688 23.7578125,30.7285156 23.859375,31.1855469 C23.9609375,31.6425781 24.1132812,32.0449219 24.3164062,32.3925781 C24.5195312,32.7402344 24.7714844,33.0390625 25.0722656,33.2890625 C25.3730469,33.5390625 25.6835938,33.71875 26.0039062,33.828125 L26.6835938,34.0507812 C27.2851562,34.0507812 27.6875,34.03125 27.890625,33.9921875 C28.265625,33.9140625 28.5957031,33.8144531 28.8808594,33.6933594 C29.1660156,33.5722656 29.5117188,33.3671875 29.9179688,33.078125 C30.1992188,33.28125 30.4335938,33.4648438 30.6210938,33.6289062 C29.9335938,34.3867188 29.2207031,34.9355469 28.4824219,35.2753906 C27.7441406,35.6152344 26.9179688,35.7851562 26.0039062,35.7851562 C25.3867188,35.7851562 24.8828125,35.7304688 24.4921875,35.6210938 C23.96875,35.4804688 23.4960938,35.265625 23.0742188,34.9765625 C22.6523438,34.6875 22.2890625,34.328125 21.984375,33.8984375 C21.6796875,33.46875 21.453125,33.0273438 21.3046875,32.5742188 C21.109375,31.9804688 21.0117188,31.5039062 21.0117188,31.1445312 C21.0117188,30.4648438 21.0664062,29.8515625 21.1757812,29.3046875 Z M27.984375,28.8007812 C27.9765625,28.3632812 27.890625,27.9453125 27.7265625,27.546875 C27.5625,27.1484375 27.3085938,26.8378906 26.9648438,26.6152344 C26.6210938,26.3925781 26.2734375,26.28125 25.921875,26.28125 C25.3984375,26.28125 24.9257812,26.5117188 24.5039062,26.9726562 C24.0820312,27.4335938 23.84375,28.0585938 23.7890625,28.8476562 L26.4609375,28.859375 C26.6328125,28.859375 26.875,28.8476562 27.1875,28.8242188 C27.4140625,28.8007812 27.5742188,28.7890625 27.6679688,28.7890625 C27.7382812,28.7890625 27.84375,28.7929688 27.984375,28.8007812 Z" id="Shape"></path>
                <path d="M32.109375,26.6328125 C33.03125,26.2421875 33.6972656,25.859375 34.1074219,25.484375 C34.5175781,25.109375 34.9570312,24.5 35.4257812,23.65625 L36.0820312,23.65625 C36.1523438,23.859375 36.1875,24.0742188 36.1875,24.3007812 C36.1875,24.7070312 36.1835938,25.0234375 36.1757812,25.25 L36.140625,25.9414062 C36.140625,25.9804688 36.1445312,26.0703125 36.1523438,26.2109375 L36.421875,26.2226562 C36.4609375,26.2226562 36.828125,26.2070312 37.5234375,26.1757812 C37.578125,26.1757812 37.8710938,26.1679688 38.4023438,26.1523438 C38.4492188,26.3632812 38.4726562,26.5507812 38.4726562,26.7148438 C38.4726562,26.8945312 38.4453125,27.1054688 38.390625,27.3476562 C38.1328125,27.3789062 37.9375,27.3945312 37.8046875,27.3945312 C37.7421875,27.3945312 37.6171875,27.3867188 37.4296875,27.3710938 L36.8203125,27.3710938 L36.609375,27.359375 L36.046875,27.3828125 L36.0234375,31.859375 C36.015625,32.7265625 36.0332031,33.2675781 36.0761719,33.4824219 C36.1191406,33.6972656 36.2109375,33.9023438 36.3515625,34.0976562 C36.53125,34.1835938 36.7304688,34.2265625 36.9492188,34.2265625 C37.1601562,34.2265625 37.3164062,34.2070312 37.4179688,34.1679688 C37.5195312,34.1289062 37.6914062,34.015625 37.9335938,33.828125 C37.9804688,33.7890625 38.0546875,33.734375 38.15625,33.6640625 C38.34375,33.8125 38.4960938,33.9609375 38.6132812,34.109375 L38.6601562,34.25 C38.3867188,34.6796875 38.0019531,35.0175781 37.5058594,35.2636719 C37.0097656,35.5097656 36.4804688,35.6328125 35.9179688,35.6328125 C35.1914062,35.6328125 34.6015625,35.4023438 34.1484375,34.9414062 C33.6953125,34.4804688 33.46875,33.765625 33.46875,32.796875 L33.515625,30.734375 L33.515625,27.3945312 L33.1523438,27.3828125 L32.3085938,27.3945312 L32.15625,27.359375 C32.109375,27.2890625 32.0859375,27.2226562 32.0859375,27.1601562 C32.0859375,27.1132812 32.09375,26.9375 32.109375,26.6328125 Z" id="Path"></path>
                <path d="M38.7890625,26 L39,25.9882812 L39.1757812,25.9882812 C39.2382812,25.9882812 39.5097656,26.0117188 39.9902344,26.0585938 C40.4707031,26.1054688 40.9140625,26.1289062 41.3203125,26.1289062 C41.6328125,26.1289062 42.0703125,26.1054688 42.6328125,26.0585938 C43.1953125,26.0117188 43.5390625,25.9882812 43.6640625,25.9882812 C43.765625,25.9882812 43.9101562,25.9921875 44.0976562,26 C44.1132812,26.1484375 44.1210938,26.2695312 44.1210938,26.3632812 C44.1210938,26.4414062 44.1054688,26.53125 44.0742188,26.6328125 C43.9570312,26.671875 43.8203125,26.703125 43.6640625,26.7265625 C43.3203125,26.7890625 43.0820312,26.859375 42.9492188,26.9375 C42.9101562,26.9609375 42.8789062,27.015625 42.8554688,27.1015625 C42.9179688,27.3359375 42.984375,27.5429688 43.0546875,27.7226562 L44.203125,30.3476562 C44.578125,31.2148438 44.90625,31.890625 45.1875,32.375 C45.34375,32.7265625 45.4492188,32.9609375 45.5039062,33.078125 C46.2382812,31.78125 46.7929688,30.5507812 47.1679688,29.3867188 L46.640625,28.2734375 C46.421875,27.7890625 46.1953125,27.3476562 45.9609375,26.9492188 C45.8203125,26.9101562 45.6679688,26.8710938 45.5039062,26.8320312 C45.2148438,26.7617188 44.9492188,26.6875 44.7070312,26.609375 L44.7070312,25.9648438 C45.2851562,25.9726562 45.6796875,25.9882812 45.890625,26.0117188 C46.2421875,26.0429688 46.765625,26.0585938 47.4609375,26.0585938 C47.8046875,26.0585938 48.2265625,26.0488281 48.7265625,26.0292969 C49.2265625,26.0097656 49.53125,26 49.640625,26 L50.2148438,26 L50.1796875,26.6679688 C50.09375,26.6757812 49.8984375,26.6953125 49.59375,26.7265625 C49.2890625,26.7578125 49.0195312,26.8085938 48.7851562,26.8789062 C49.1757812,27.8476562 49.4335938,28.4453125 49.5585938,28.671875 L49.6992188,28.9296875 L50.953125,31.671875 L51.3867188,32.609375 L51.84375,31.6015625 C52.21875,30.78125 52.4414062,30.28125 52.5117188,30.1015625 C52.7382812,29.515625 52.8710938,29.1796875 52.9101562,29.09375 C53.2773438,28.3203125 53.4609375,27.7460938 53.4609375,27.3710938 C53.4609375,27.2695312 53.3789062,27.1640625 53.2148438,27.0546875 C53.1679688,27.0234375 52.8789062,26.9257812 52.3476562,26.7617188 C51.9726562,26.7148438 51.71875,26.6679688 51.5859375,26.6210938 L51.6445312,26.0117188 C51.7617188,25.9960938 51.859375,25.9882812 51.9375,25.9882812 C52,25.9882812 52.3535156,26.0136719 52.9980469,26.0644531 C53.6425781,26.1152344 54.0195312,26.140625 54.1289062,26.140625 C54.4257812,26.140625 54.8789062,26.109375 55.4882812,26.046875 C55.7539062,26.0234375 55.9726562,26.0117188 56.1445312,26.0117188 L56.1445312,26.3515625 C56.1445312,26.4140625 56.140625,26.5351562 56.1328125,26.7148438 C55.3671875,26.9414062 54.8867188,27.125 54.6914062,27.265625 C54.6445312,27.296875 54.59375,27.3710938 54.5390625,27.4882812 L52.7578125,31.5195312 C52.453125,32.1601562 51.9375,33.3789062 51.2109375,35.1757812 C51.109375,35.4179688 51.03125,35.6054688 50.9765625,35.7382812 L50.0976562,35.7382812 L48.09375,31.2734375 L47.8828125,30.8164062 C47.8203125,30.6757812 47.7460938,30.53125 47.6601562,30.3828125 L47.5546875,30.5703125 L46.1484375,33.4765625 C45.9375,33.9296875 45.7402344,34.3242188 45.5566406,34.6601562 C45.3730469,34.9960938 45.2109375,35.34375 45.0703125,35.703125 L44.6601562,35.7148438 L44.0273438,35.703125 L42.1992188,31.8125 L40.21875,27.546875 C40.09375,27.3203125 39.9765625,27.1640625 39.8671875,27.078125 C39.6796875,26.9375 39.4667969,26.8457031 39.2285156,26.8027344 C38.9902344,26.7597656 38.8398438,26.7109375 38.7773438,26.65625 C38.7695312,26.5078125 38.765625,26.3945312 38.765625,26.3164062 C38.765625,26.2070312 38.7734375,26.1015625 38.7890625,26 Z" id="Path"></path>
                <path d="M65.5898438,26.9726562 C66.0898438,27.4570312 66.4628906,28.0136719 66.7089844,28.6425781 C66.9550781,29.2714844 67.078125,29.8632812 67.078125,30.4179688 C67.078125,31.4648438 66.9179688,32.3085938 66.5976562,32.9492188 C66.1132812,33.9179688 65.4609375,34.6328125 64.640625,35.09375 C63.8203125,35.5546875 62.8671875,35.7851562 61.78125,35.7851562 C60.5625,35.7851562 59.5292969,35.5117188 58.6816406,34.9648438 C57.8339844,34.4179688 57.2285156,33.796875 56.8652344,33.1015625 C56.5019531,32.40625 56.3203125,31.5429688 56.3203125,30.5117188 C56.3203125,29.9882812 56.40625,29.4628906 56.578125,28.9355469 C56.75,28.4082031 56.9863281,27.9492188 57.2871094,27.5585938 C57.5878906,27.1679688 57.9179688,26.8398438 58.2773438,26.5742188 C58.8007812,26.1992188 59.3261719,25.9316406 59.8535156,25.7714844 C60.3808594,25.6113281 61.0195312,25.53125 61.7695312,25.53125 C63.4023438,25.53125 64.6757812,26.0117188 65.5898438,26.9726562 Z M59.1796875,31.0273438 C59.25,31.9960938 59.3007812,32.5546875 59.3320312,32.703125 C59.4335938,33.2265625 59.59375,33.6757812 59.8125,34.0507812 C59.9609375,34.2929688 60.2070312,34.5078125 60.5507812,34.6953125 C60.8945312,34.8828125 61.3046875,34.9765625 61.78125,34.9765625 C62.3515625,34.9765625 62.8320312,34.7949219 63.2226562,34.4316406 C63.6132812,34.0683594 63.8945312,33.5 64.0664062,32.7265625 C64.1757812,32.21875 64.2304688,31.3867188 64.2304688,30.2304688 C64.2304688,28.8085938 63.9960938,27.8027344 63.5273438,27.2128906 C63.0585938,26.6230469 62.4414062,26.328125 61.6757812,26.328125 C61.0742188,26.328125 60.5761719,26.4960938 60.1816406,26.8320312 C59.7871094,27.1679688 59.5117188,27.6640625 59.3554688,28.3203125 C59.2539062,28.7421875 59.1953125,29.6445312 59.1796875,31.0273438 Z" id="Shape"></path>
                <path d="M68.4023438,34.9414062 C68.5039062,34.8554688 68.6367188,34.7929688 68.8007812,34.7539062 C69.1992188,34.6679688 69.578125,34.5117188 69.9375,34.2851562 C70.0078125,34.0976562 70.0429688,33.4648438 70.0429688,32.3867188 C70.0429688,30.4101562 70,29.0742188 69.9140625,28.3789062 C69.8984375,28.2539062 69.8359375,28.1445312 69.7265625,28.0507812 C69.53125,27.9492188 69.265625,27.859375 68.9296875,27.78125 C68.7734375,27.7421875 68.6796875,27.65625 68.6484375,27.5234375 L68.6132812,27.0898438 C69.1914062,27.0117188 69.7148438,26.8144531 70.1835938,26.4980469 C70.6523438,26.1816406 71.0039062,25.859375 71.2382812,25.53125 C71.3632812,25.3515625 71.4726562,25.2148438 71.5664062,25.1210938 L72.3867188,25.0859375 C72.4257812,25.265625 72.4453125,25.4140625 72.4453125,25.53125 C72.4453125,25.6171875 72.4414062,25.7226562 72.4335938,25.8476562 C72.4257812,26.1210938 72.421875,26.3476562 72.421875,26.5273438 C72.421875,26.6132812 72.4257812,26.9375 72.4335938,27.5 C72.7539062,26.953125 72.9882812,26.5859375 73.1367188,26.3984375 C73.2070312,26.3125 73.4140625,26.1210938 73.7578125,25.8242188 C74.0234375,25.6289062 74.3242188,25.53125 74.6601562,25.53125 C75.0742188,25.53125 75.4335938,25.671875 75.7382812,25.953125 C76.0429688,26.234375 76.1953125,26.5585938 76.1953125,26.9257812 C76.1953125,27.2929688 76.0800781,27.6230469 75.8496094,27.9160156 C75.6191406,28.2089844 75.3125,28.3554688 74.9296875,28.3554688 C74.59375,28.3554688 74.2421875,28.2148438 73.875,27.9335938 C73.65625,27.7617188 73.4804688,27.6757812 73.3476562,27.6757812 L73.265625,27.6875 C73.1015625,27.7421875 72.953125,27.890625 72.8203125,28.1328125 C72.6015625,28.5234375 72.4921875,28.9296875 72.4921875,29.3515625 L72.515625,29.6679688 C72.546875,30.2460938 72.5703125,31.6015625 72.5859375,33.734375 C72.609375,33.9296875 72.6835938,34.125 72.8085938,34.3203125 C72.9492188,34.4296875 73.0917969,34.5078125 73.2363281,34.5546875 C73.3808594,34.6015625 73.6328125,34.640625 73.9921875,34.671875 C74.3515625,34.703125 74.5703125,34.7519531 74.6484375,34.8183594 C74.7265625,34.8847656 74.765625,34.9921875 74.765625,35.140625 C74.765625,35.2265625 74.7421875,35.3398438 74.6953125,35.4804688 L73.59375,35.4804688 L71.3554688,35.3632812 C70.7929688,35.3632812 70.28125,35.3867188 69.8203125,35.4335938 L69.6210938,35.4335938 C69.5664062,35.4335938 69.1601562,35.453125 68.4023438,35.4921875 C68.3789062,35.3671875 68.3671875,35.2734375 68.3671875,35.2109375 C68.3671875,35.1484375 68.3789062,35.0585938 68.4023438,34.9414062 Z" id="Path"></path>
                <path d="M76.8046875,34.8476562 C76.9453125,34.7773438 77.0859375,34.7304688 77.2265625,34.7070312 C77.3671875,34.6835938 77.46875,34.6640625 77.53125,34.6484375 C77.984375,34.6015625 78.2460938,34.5625 78.3164062,34.53125 C78.3710938,34.3671875 78.40625,34.109375 78.421875,33.7578125 L78.4921875,28.8007812 L78.4921875,28.1328125 L78.5039062,27.6289062 L78.5039062,24.265625 C78.5039062,23.46875 78.4765625,22.8945312 78.421875,22.5429688 C78.4140625,22.4570312 78.3867188,22.328125 78.3398438,22.15625 C78.1835938,22.0234375 78.03125,21.9316406 77.8828125,21.8808594 C77.734375,21.8300781 77.421875,21.7773438 76.9453125,21.7226562 C76.9375,21.6210938 76.9335938,21.5429688 76.9335938,21.4882812 C76.9335938,21.4023438 76.9414062,21.2773438 76.9570312,21.1132812 C77.2617188,21.0117188 78.1210938,20.7734375 79.5351562,20.3984375 C79.9257812,20.2890625 80.2734375,20.1679688 80.578125,20.0351562 L81.046875,20.0585938 L81.0703125,25.2617188 C81.0703125,25.3007812 81.0585938,25.5507812 81.0351562,26.0117188 C81.0273438,26.1757812 81.0234375,26.5 81.0234375,26.984375 L81,28.7421875 L81,30.4179688 C81.390625,30.1835938 82.1992188,29.6601562 83.4257812,28.8476562 C83.8476562,28.5664062 84.3203125,28.2148438 84.84375,27.7929688 C85.0625,27.6210938 85.2226562,27.4804688 85.3242188,27.3710938 C85.1992188,27.3164062 85.078125,27.2734375 84.9609375,27.2421875 C84.6640625,27.171875 84.3085938,27.0546875 83.8945312,26.890625 C83.8867188,26.78125 83.8828125,26.6992188 83.8828125,26.6445312 C83.8828125,26.5664062 83.8945312,26.4453125 83.9179688,26.28125 L84.7851562,26.2695312 C84.8554688,26.2695312 85.0566406,26.2792969 85.3886719,26.2988281 C85.7207031,26.3183594 86.0546875,26.328125 86.390625,26.328125 C86.6640625,26.328125 87.0488281,26.3125 87.5449219,26.28125 C88.0410156,26.25 88.3476562,26.234375 88.4648438,26.234375 C88.5898438,26.234375 88.7773438,26.2421875 89.0273438,26.2578125 C89.0351562,26.34375 89.0390625,26.40625 89.0390625,26.4453125 C89.0390625,26.5234375 89.0234375,26.6328125 88.9921875,26.7734375 L88.0664062,27.0664062 C87.5585938,27.2148438 87.171875,27.3632812 86.90625,27.5117188 C86.2578125,27.8789062 85.1640625,28.5859375 83.625,29.6328125 C83.8125,29.828125 84.0078125,30.0234375 84.2109375,30.21875 L84.515625,30.5 L85.3828125,31.3671875 L87.2929688,33.2890625 L88.3945312,34.390625 C88.5585938,34.5078125 88.8828125,34.6757812 89.3671875,34.8945312 C89.375,35.1132812 89.3789062,35.2421875 89.3789062,35.28125 C89.3789062,35.34375 89.375,35.4375 89.3671875,35.5625 C89.28125,35.5625 89.0273438,35.5429688 88.6054688,35.5039062 C88.3632812,35.4726562 88.1523438,35.4570312 87.9726562,35.4570312 C86.3476562,35.4570312 84.9609375,35.4765625 83.8125,35.515625 C83.8125,35.3984375 83.8046875,35.3085938 83.7890625,35.2460938 L83.7773438,35.0703125 C83.7773438,35.015625 83.796875,34.9296875 83.8359375,34.8125 C84.03125,34.7421875 84.2929688,34.6914062 84.6210938,34.6601562 C84.7539062,34.6523438 84.8984375,34.6367188 85.0546875,34.6132812 C84.9375,34.4023438 84.7929688,34.2070312 84.6210938,34.0273438 L81.5859375,30.7929688 L80.953125,31.1328125 L80.953125,33.5820312 C80.953125,33.6523438 80.9570312,33.78125 80.9648438,33.96875 L80.9765625,34.4023438 C81.1328125,34.5117188 81.2539062,34.5820312 81.3398438,34.6132812 C81.4726562,34.6601562 81.7226562,34.703125 82.0898438,34.7421875 C82.1914062,34.75 82.2851562,34.765625 82.3710938,34.7890625 L82.3710938,35.0820312 L82.3828125,35.2929688 C82.3828125,35.3320312 82.375,35.3945312 82.359375,35.4804688 L82.2773438,35.515625 C81.5585938,35.4921875 80.9882812,35.4648438 80.5664062,35.4335938 C80.3398438,35.4179688 80.1601562,35.4101562 80.0273438,35.4101562 C79.9570312,35.4101562 79.7851562,35.4140625 79.5117188,35.421875 L78.84375,35.421875 L77.8359375,35.515625 L77.53125,35.5039062 L76.8398438,35.5390625 C76.8085938,35.40625 76.7929688,35.2851562 76.7929688,35.1757812 C76.7929688,35.0898438 76.796875,34.9804688 76.8046875,34.8476562 Z" id="Path"></path>
            </g>
        </g>
    </g>
</svg>